<svg width="450" height="250" xlmns="http://www.w3.org/2000/svg">
        <ellipse cx="170" cy="200" rx="50" ry="15" stroke="#d3d3d3" fill="#d3d3d3"></ellipse>
        <ellipse cx="360" cy="200" rx="50" ry="15" stroke="#d3d3d3" fill="#d3d3d3"></ellipse>
        <circle cx="170" cy="130" r="70" stroke="orange" fill="orange"></circle>
        <circle cx="360" cy="130" r="70" stroke="#ffd700" fill="#ffd700"></circle>
        <ellipse cx="105" cy="95" rx="45" ry="20" stroke="orange" fill="orange" transform="rotate(20)"></ellipse>
        <polygon points="35,125 30,105 55,105" stroke="white" fill="white"></polygon>
        <circle cx="160" cy="120" r="30" stroke="white" fill="white"></circle>
        <circle cx="200" cy="120" r="30" stroke="white" fill="white"></circle>
        <circle cx="205" cy="120" r="6" stroke="black" fill="black"></circle>
        <circle cx="165" cy="120" r="6" stroke="black" fill="black"></circle>
        <circle cx="185" cy="145" r="9" stroke="black" fill="black"></circle>
        <ellipse cx="172" cy="170" rx="11" ry="5" stroke="#dc143c" fill="#dc143c"></ellipse>
        <circle cx="330" cy="120" r="30" stroke="white" fill="white"></circle>
        <circle cx="370" cy="120" r="30" stroke="white" fill="white"></circle>
        <circle cx="325" cy="120" r="6" stroke="black" fill="black"></circle>
        <circle cx="365" cy="120" r="6" stroke="black" fill="black"></circle>
        <ellipse cx="352" cy="170" rx="5" ry="11" stroke="#dc143c" fill="#dc143c"></ellipse>
        <polygon points="125,80 135,50 160,60 " stroke="orange" fill="orange"></polygon>
        <polygon points="190,65 215,50 220,80 " stroke="orange" fill="orange"></polygon>
        <polygon points="133,70 138,55 153,60 " stroke="black" fill="black"></polygon>
        <polygon points="198,63 213,55 215,73 " stroke="black" fill="black"></polygon>
    </svg>