<svg width = "600" height = "430" xlmns="http://www.w3.org/2000/svg">
        <path id="test-path" fill="none" stroke="cyan" stroke-width="1" d="M3.858,58.607 c16.784-5.985,33.921-10.518,51.695-12.99c50.522-7.028,101.982,0.51,151.892,8.283c17.83,2.777,35.632,5.711,53.437,8.628 c51.69,8.469,103.241,11.438,155.3,3.794c53.714-7.887,106.383-20.968,159.374-32.228c11.166-2.373,27.644-7.155,39.231-4.449" />
        <text  stroke="red" fill="none" stroke-width="2px">
            <textPath xlink:href = "#test-path" startOffset="40" font-size="40px">Здесь интересный заголовок</textPath>
        </text>
        <rect x="150" y="395" width="12" height="30" stroke="black" fill="black" rx="4" ry="4"></rect>
        <rect x="405" y="395" width="12" height="30" stroke="black" fill="black" rx="4" ry="4"></rect>
        <rect x="90" y="105" width="400" height="300" stroke="#696969" fill="#696969" rx="50" ry="50"></rect>
        <rect x="110" y="125" width="320" height="260" stroke="#87ceeb" fill="#87ceeb" rx="50" ry="50"></rect>
        <circle cx = "270" cy = "255" r = "100" stroke = "#dc143c" fill = "#dc143c"></circle>
        <circle cx = "270" cy = "255" r = "80" stroke = "white" fill = "white"></circle>
        <circle cx = "270" cy = "255" r = "60" stroke = "#dc143c" fill = "#dc143c"></circle>
        <circle cx = "270" cy = "255" r = "40" stroke = "white" fill = "white"></circle>
        <circle cx = "270" cy = "255" r = "20" stroke = "#dc143c" fill = "#dc143c"></circle>
        <circle cx = "460" cy = "340" r = "15" stroke = "black" fill = "black"></circle>
        <rect x="440" y="155" width="40" height="75" stroke="black" fill="black" rx="8" ry="8"></rect>
        <rect x = "448" y = "165" width = "25" height = "10" stroke = "red" fill = "red" rx = "3" ry = "3"></rect>
        <rect x = "448" y = "187" width = "25" height = "10" stroke = "yellow" fill = "yellow" rx = "3" ry = "3"></rect>
        <rect x = "448" y = "210" width = "25" height = "10" stroke = "limegreen" fill = "limegreen" rx = "3" ry = "3"></rect>
    </svg>